<svg xmlns="http://www.w3.org/2000/svg" xmlnsXlink="http://www.w3.org/1999/xlink" width="1920" height="1080" viewBox="0 0 1920 1080">
  <defs>
    <clipPath id="clip-Artboard_1">
      <rect width="1920" height="1080"/>
    </clipPath>
  </defs>
  <g id="Artboard_1" data-name="Artboard 1" clip-path="url(#clip-Artboard_1)">
    <rect width="1920" height="1080" fill="#fff"/>
    <path id="Texas" d="M939.755,941.654c-6.089-4.615-11.842-7.314-18.813-7.365-2.761-.021-5.54-1.94-8.255-3.124-4.233-1.846-8.353-4.027-13.226-3.33-4.026.575-7.147-1.046-9.5-4.2-6.352-8.5-10.031-18.407-14.5-27.892-1.1-2.337-.672-4.967-.441-7.4.46-4.873-1.421-8.34-5.5-10.779-3.836-2.3-6.429-5.27-7.2-9.979a15.883,15.883,0,0,0-3.455-7.06c-8.768-10.721-14.657-23.1-21.254-35.137-6.992-12.754-16.569-23.543-30.922-28.192-12.568-4.071-24.567-3.052-34.423,7.32-4.938,5.2-9.741,10.419-12.368,17.229-.819,2.123-1.929,2.173-3.824,1.173-12.633-6.671-24.344-14.634-34.42-24.8-3.556-3.588-5.256-8.4-6.734-13.142-4.359-13.978-9.622-27.215-20.587-37.821-9.632-9.317-17.33-20.506-26.833-30.047-1.714-1.72-5.852-2.749-4.522-5.685,1.022-2.259,4.186.194,6.346.447,16.862,1.98,33.845,2.52,50.712,4.55,11.8,1.419,23.74,1.637,35.623,2.312,3.629.207,7.158,1.2,10.863.96,2.531-.161,3.969-.544,4.136-3.554q.95-17.085,2.322-34.147c1.132-13.826,2.621-27.624,3.7-41.454.7-8.937.937-17.91,1.378-26.868.9-18.2,2.846-36.344,3.017-54.584.016-1.688.38-2.432,2.251-2.181,12.012,1.613,24.12,1.718,36.2,2.2,14.255.567,28.478,2.034,42.766,1.643,2.375-.065,2.722.978,2.632,2.974-.615,13.6-1.086,27.214-1.758,40.815-.386,7.81.577,15.652-.635,23.444a2.629,2.629,0,0,0,.964,2.135c4.144,2.669,8.331,5.277,12.594,7.748,2.808,1.628,5.489-.941,7.855-.751,2.76.221.911,5.624,3.884,6.639,4.628,1.579,9.527,2.35,14.21,3.789,5.172,1.59,10.18,3.358,15.56.62,1.43-.728,1.738,1.226,2.213,2.093a15.963,15.963,0,0,0,5.416,6.352c1.5.924,3.237,1.722,4.589.366,2.717-2.725,5.049-2.373,8.044-.33,2.811,1.916,7.343.127,9.3,4.734.725,1.7,3.306-.039,4.714-1.111,7.744-5.9,9.543-6.25,16.279-.146,3.736,3.386,6.316,4.123,10.3.607,3.718-3.28,8.632-3.83,13.534-4.082,5.07-.261,10.2.992,15.251-.742.924-.317,2.52.625,3.528,1.364,5.62,4.122,12,6.782,18.212,9.791a6.4,6.4,0,0,0,4.322.768c4.469-1.164,5.542.25,5.8,4.932.8,14.786,1.018,29.573,1.127,44.367.024,3.261.09,6.094,3.239,8.271,1.8,1.245,2.842,3.533,3.664,5.773a97.785,97.785,0,0,0,4.734,11.354c4.363,8.427,6.179,16.658,1.837,25.928-2.553,5.453-.8,11.842-.878,17.8a14.193,14.193,0,0,1-3.058,9.149c-.207.261-.542.485-.616.777-2.65,10.519-13.3,9.14-20.143,13.368-2.559,1.58-5.442,1.056-7.692-1.99-2.268-3.069-4.452-2.325-5.462,1.406-.214.788-.924,1.58-.828,2.291,1.457,10.761-6.288,15.646-13.347,20.888q-6.357,4.721-13.065,8.961c-2.688,1.7-5.117,4.216-9.108,1.815-2.074-1.248-5.219-.278-7.626.917-2.47,1.227-4.41,2.767-3.178,6.2.422,1.178-1.562,1.451-2.493,1.984a50.543,50.543,0,0,0-18.3,17.111c-.6.956-1.508,2.4-2.312,2.43-5.155.165-5.53,3.932-5.987,7.577a94.881,94.881,0,0,1-5.4,21.505c-2.562,6.853.354,13.222,2.146,19.645C938.214,926.933,940.351,933.527,939.755,941.654Z" fill="#f5f2f2"/>
    <path id="California" d="M244.1,422.923c.436,5.692,3.08,8.766,6.507,11.284.848.623,1.564,2.174,2.887,1.286,1.207-.81,1.226-2.175.744-3.57-1.233-3.565-2.561-7.11-3.534-10.748-2.2-8.209-1.292-9.187,6.775-7.214a51.928,51.928,0,0,1,14.047,6.153c.985.584,2.109,1.483,3.143.526.929-.859.535-2.2.148-3.289-2.952-8.315-19.957-14.645-27.768-10.382-2.668,1.456-3.759,4.019-4.777,7.051-4.186-2.892-7.257-5.871-6.2-11.295.715-3.658-.916-6.8-2.6-9.881-1.574-2.888-3.039-5.84-4.721-8.664-5.662-9.5-5.636-19.572-2.561-29.71,2.694-8.883,2.831-17.514-.5-26.2-3.034-7.915-3.376-15.586,1.658-23.023,6.465-9.551,8.378-20.664,10.345-31.724,2.121-11.929,2.088-11.8,13.554-8.715q44.535,11.977,89.15,23.658c3.126.814,3.949,1.45,3.1,4.861-7.866,31.475-15.447,63.021-23.258,94.51-1.07,4.313-.432,7.526,2.226,11.335,18.8,26.936,37.256,54.108,55.8,81.222q28.674,41.936,57.248,83.938c4.094,6.05,4.316,13.585,6.426,20.394.74,2.386.948,4.782,2.926,6.5,2.865,2.493,3.232,4.465-.888,5.993-5.688,2.109-8.76,6.393-9.176,12.351-.345,4.951-3.5,8.165-6.563,11.358-4.521,4.718-4.311,10.489-4.11,16.253.059,1.689,1.709,2.659,3.2,3.545,3.527,2.1,2.766,3.736-.647,5.128-5.592,2.283-11.048-.247-16.539-.5-8.718-.406-17.392-1.736-26.088-2.643-9.843-1.026-19.717-1.812-29.519-3.134-3.31-.447-5.058-2.778-4.531-6.752,2-15.075-2.037-27.885-14.889-37.053a20.577,20.577,0,0,0-4.286-2.486c-4.15-1.639-5.575-5.092-5.677-9.008-.108-4.166-2.273-6.547-5.421-8.762-10.611-7.469-22.494-12.77-33.366-19.781-6.149-3.966-12.182-8.071-16.2-14.429-1.549-2.45-2.374-4.645-.4-7.593,2.778-4.153,1.715-7.993-.518-12.73-5.91-12.542-12.9-24.5-18.881-37-2.782-5.815-.9-10.961,1.183-16.125a12.182,12.182,0,0,0,.116-9.412c-3.062-8.345-5.609-16.88-8.714-25.207C241.672,429.839,241.948,426.933,244.1,422.923Z" fill="#f5f2f2"/>
    <path id="Montana" d="M592.355,239.269c-1.509-1.79-2.545-3.007-3.569-4.234-2.657-3.183-5.237-2.232-6.506.9-1.134,2.8-2.159,2.45-4.678,2.028-9.711-1.626-19.392-4.092-29.364-.34-2.46.925-3.653-3.38-3.007-5.108,2.019-5.407-.857-7.815-4.979-9.5-2.4-.979-3.005-2.576-3.441-4.833-1.557-8.056-1.552-16.429-4.57-24.178-2.433-6.248-2.573-6.194-8.48-3.727a21.814,21.814,0,0,1-3.2,1.31c-2.937.7-4.773.164-4.6-3.581.338-7.1,3.358-13.4,5.566-19.941a79.892,79.892,0,0,1,4.244-11.032c1.81-3.522-.118-4.869-2.765-5.036-3.909-.247-5.527-2.734-6.857-5.635a50.022,50.022,0,0,0-5.114-9c-3.833-5.185-10.174-9.967-10.976-15.561-.925-6.459-3.22-12.064-5.313-17.881-1.369-3.808-.339-7.22.354-10.75,1.547-7.866,3.5-15.661,4.766-23.568.494-3.078,1.969-3.058,4.036-2.614,29.443,6.32,59.156,11.14,88.883,15.858,21.625,3.432,43.263,6.764,65.039,9.192,20.953,2.337,41.834,5.316,62.777,7.758,9.042,1.054,18.162,1.429,27.241,2.182,10.71.889,21.41,1.9,32.124,2.748,2.457.194,2.433.872,2.2,3.292-1.093,11.382-1.649,22.815-2.408,34.229q-1.335,20.064-2.688,40.127-1.749,26.29-3.479,52.583c-.011.166.009.334,0,.5-.409,8.583-.39,7.973-9.164,7.7-18.569-.574-36.973-2.933-55.425-4.632-15.4-1.418-30.789-3.243-46.154-5.173-12.434-1.561-24.869-3.217-37.321-4.683-8.468-1-16.881-2.469-25.319-3.724-3.586-.534-6.669-.778-6.412,4.574C593.951,232.544,592.942,235.618,592.355,239.269Z" fill="#f5f2f2"/>
    <path id="New_Mexico" data-name="New Mexico" d="M658.988,714.561c-14.782-1.565-29.5-3.027-44.186-4.752-3.29-.387-4.731.494-4.819,3.77a38.011,38.011,0,0,1-.5,4.438c-1.144,7.8-1.192,8-8.78,6.529a57.931,57.931,0,0,0-10.329-1.166c-3.238-.038-3.641-1.411-3.233-3.945,2.872-17.853,4.78-35.827,6.938-53.773,2.533-21.057,5.516-42.06,8.216-63.1,1.679-13.079,3.164-26.182,4.792-39.268,1.586-12.741,3.274-25.469,4.83-38.214.215-1.759.909-2.282,2.572-2.07,15.986,2.04,31.937,4.474,47.976,5.944,14.456,1.324,28.838,3.335,43.362,4.111,13.663.73,27.267,2.506,40.913,3.619q14.84,1.211,29.724,1.823c2.9.117,3.988.364,3.462,3.768-3.423,22.161-3.706,44.6-5.692,66.9-.869,9.756-.694,19.6-1.431,29.372-1.044,13.835-2.616,27.63-3.729,41.46-.8,9.906-1.536,19.839-1.655,29.767-.056,4.65-.978,6.693-5.984,5.943-15.065-2.257-30.358-1.884-45.47-3.9-9.674-1.29-19.489-1.5-29.23-2.313-6.89-.577-13.8-1.124-20.634-2.115C657.813,706.191,657.383,706.434,658.988,714.561Z" fill="#f5f2f2"/>
    <path id="Arizona" d="M608.25,525.667c-2.793,20.867-5.535,40.725-8.085,60.608-1.867,14.556-3.395,29.155-5.232,43.715-2.222,17.609-4.69,35.187-6.9,52.8-1.536,12.245-2.547,24.554-4.692,36.727-.409,2.324-.165,3.016-3.343,2.505-15.444-2.479-30.955-4.736-46.525-6.179-9.762-.9-17.265-6.215-25.189-10.689-28.312-15.986-56.443-32.292-84.579-48.585-1.178-.682-3.9-.691-3.15-2.906a4.28,4.28,0,0,1,4.4-3.178c3.731,0,6.3-2.829,8.449-5.569,1.795-2.289-.3-4.011-1.727-5.492C427,634.573,426.264,628.1,430.9,623.5c4.568-4.536,7.505-9.467,8.15-15.9.348-3.48,3.1-5.285,6.014-6.68,7.4-3.546,7.992-6.255,2.5-12.092a4.662,4.662,0,0,1-1.541-3.462c.031-3.209-1.146-6.089-2.485-8.984-1.945-4.2-2.425-8.906-.492-13.005,3.375-7.159,2.094-14.575,2.343-21.924.09-2.657-.232-5.335-.047-7.98.138-1.981.775-4.066,3-4.7,2.078-.588,3.694.284,5.256,1.919,5.563,5.824,8.551,5.4,12.291-1.752,3.665-7,4.24-14.776,4.833-22.442.289-3.746.7-4.871,5.178-4.115,23.7,4,47.375,8.148,71.18,11.565q28.3,4.062,56.623,7.91C606.108,522.183,610.4,521.645,608.25,525.667Z" fill="#f5f2f2"/>
    <path id="Nevada" d="M439.012,562.572C426.84,544.8,414.979,527.5,403.133,510.194q-29.905-43.7-59.8-87.411-9.227-13.479-18.538-26.9a6.774,6.774,0,0,1-.971-6.03q11.775-47.928,23.291-95.918c.629-2.6,1.623-3.447,4.68-2.724q41.7,9.875,83.631,18.73c21.34,4.468,42.743,8.551,64.232,12.47q-6.309,35.168-12.619,70.335c-5.142,28.614-10.387,57.21-15.4,85.846-2.409,13.751-4.384,27.579-6.6,41.365a19.989,19.989,0,0,1-1.16,4.316c-2.818,6.957-3.8,7.182-9.279,2.329-4.372-3.869-10.791-1.815-12.485,4.063-1.748,6.064.076,12.215-.228,18.342C441.661,553.513,441.406,557.818,439.012,562.572Z" fill="#f5f2f2"/>
    <path id="COlorado" d="M815.594,394.957c-1.439,6.768-.9,13.271-1.366,19.683-1.305,18.058-1.2,36.216-2.4,54.284-1.422,21.389-2.272,42.792-2.906,64.208-.094,3.179-1.252,3.8-4.239,3.542-9.411-.828-18.85-1.334-28.277-1.987-17-1.179-34.024-2.043-50.987-3.861-12.658-1.358-25.429-1.712-38.068-3.2-13.421-1.583-26.93-2.241-40.3-4.342-9.76-1.533-19.621-2.512-29.47-3.338-3.748-.314-5.112-.989-4.506-5.241,2.485-17.446,4.565-34.95,6.747-52.438,2.425-19.432,4.774-38.874,7.206-58.305.94-7.516,2.12-15,2.963-22.53.245-2.188.786-2.815,3.033-2.455,17.084,2.731,34.308,4.294,51.516,6,15.275,1.515,30.529,3.256,45.812,4.68,10.056.938,20.149,1.483,30.224,2.217C778.751,393.2,796.924,394.648,815.594,394.957Z" fill="#f5f2f2"/>
    <path id="Wyoming" d="M577.356,367.732c2.262-15.34,4.509-30.427,6.7-45.522q4.788-32.919,9.519-65.847c1.153-7.968,2.378-15.926,3.476-23.9.372-2.7.89-3.706,4.351-3.3,20.244,2.388,40.353,5.746,60.634,7.929,17.355,1.869,34.681,4.091,52.067,5.718,16.764,1.568,33.483,3.714,50.346,4.1,6.35.145,7,.691,6.579,7.066-1.294,19.483-2.822,38.95-4.137,58.432-1.171,17.347-2.142,34.708-3.276,52.058-.463,7.08-1.221,14.142-1.629,21.225-.121,2.111-.946,2.443-2.742,2.292-13.333-1.122-26.677-2.109-40-3.3-14.3-1.28-28.592-2.6-42.86-4.16-12.6-1.374-25.159-3.093-37.735-4.665-14.042-1.755-28.088-3.472-42.121-5.294C590.205,369.743,583.906,368.707,577.356,367.732Z" fill="#f5f2f2"/>
    <path id="Oregon" d="M310.443,137.113c-1.2,4.387,1.827,9.278,8.386,12.242,2.068.935,4.2,1.829,6.638.726,6.867-3.1,13.484-1.124,19.79,1.659a67.15,67.15,0,0,0,36.916,5.324c18.177-2.573,35.495.877,52.875,5.128,5.56,1.36,11.163,2.577,16.795,3.591,2.16.389,2.957,1.619,4.347,3.133,7.016,7.644,5.534,13.935-.36,21.825-5.225,6.994-9.277,14.83-15.956,20.771a14.429,14.429,0,0,0-4.985,8.4c-.475,2.844-.108,5.851,2.654,6.8,3.258,1.122,3.184,2.74,2.172,5.176-8.657,20.845-10.631,43.309-15.633,65.035-1.027,4.459-1.714,6.477-7.323,5.251Q363.6,290.557,310.934,276.9c-21.971-5.682-43.781-11.918-65.682-17.835-6.681-1.8-8.729-4.623-6.718-11.082,1.956-6.284,4.87-12.278,2.625-19.126-.45-1.371.778-2.463,1.549-3.534,3.8-5.277,5.688-11.85,11.27-15.963,1.469-1.082,2.44-3.225,3.014-5.075,4.763-15.332,12.7-29.323,18.521-44.215a149.121,149.121,0,0,0,7.286-23.573c1.17-5.585,4.024-10.453,5.53-15.872.488-1.757,4.137-2.032,6.33-1.49a82.152,82.152,0,0,1,9.234,3.417C309.271,124.594,311.735,128.414,310.443,137.113Z" fill="#f5f2f2"/>
    <path id="Utah" d="M503.281,323.259c13.18,2.219,26.106,4.456,39.054,6.554,10.838,1.756,21.69,3.439,32.564,4.954,2.955.412,3.4,1.826,2.978,4.332-1.581,9.388-3.056,18.793-4.644,28.18-.528,3.125,1.142,4.167,3.8,4.513,10.274,1.334,20.548,2.659,30.816,4.034,4.9.656,9.764,1.851,14.669,1.993,3.79.11,3.959,1.884,3.6,4.641-1.347,10.444-2.723,20.884-4.023,31.334-2.417,19.423-4.761,38.855-7.188,58.277-1.833,14.67-3.772,29.328-5.6,44-.272,2.183-1.478,2.911-3.391,2.559-19.222-3.538-38.71-5.219-57.991-8.435-11.974-2-24.021-3.765-36.053-5.516-12.194-1.775-24.328-3.97-36.476-6.051-2.563-.439-3.18-1.4-2.586-4.567,4.371-23.248,8.174-46.6,12.342-69.887,5-27.958,10.207-55.88,15.287-83.824C501.471,334.7,502.33,329.01,503.281,323.259Z" fill="#f5f2f2"/>
    <path id="Minnesota" d="M998.952,98.148c2.817-.239,4.254.769,4.768,3.421.9,4.657,2.013,9.276,3.086,13.9.695,2.994,2.2,5.117,5.631,5.386a72.669,72.669,0,0,1,8.736,1.651c3.6.732,7.17.256,9.847,4.015,1.564,2.2,4.521.609,6.722-.718,8.1-4.882,14.078-4,20.64,3.048,1.127,1.21,1.893,2.895,3.219,3.751,2.456,1.585,5.2,5.4,7.6-.436.91-2.215,2.786-.86,4.085.266,2.252,1.955,4.369,4.082,6.733,5.889,4.861,3.715,8.86,3.518,13.963-.358,1.572-1.194,3.232-2.274,4.864-3.39.674-.461,1.685-1.209,2.183-.385,3.28,5.424,8.261,3.737,12.947,3.253,3.206-.331,6.491-1.667,8.961,1.991.489.723,2.483.43,4.173.658a28.285,28.285,0,0,1-10.414,5.551c-9.456,2.977-16.656,9.1-22.392,16.632-5.995,7.875-13.119,14.515-20.294,21.127-4.723,4.351-6.64,9.167-5.378,15.406,1.7,8.409.648,10.631-6.853,15.081-5.739,3.4-8.1,13.97-3.42,18.281,4.371,4.027,1.5,8.209.956,11.879-.789,5.308.342,10.234.907,15.267a8.026,8.026,0,0,0,6.746,7.133c7.058,1.287,11.792,5.876,16.09,10.91,2.338,2.738,4.754,5.11,8.051,6.407,6.85,2.694,8.636,8.563,9.727,14.953.346,2.024-.86,2.022-2.326,2.076-10.621.394-21.237.988-31.862,1.251-20.273.5-40.523,1.607-60.8,2.019-10.962.223-21.95.053-32.9.656-3.491.192-4.049-1.131-4.021-4.239.165-18.649.078-37.3-.531-55.945-.118-3.618-1.065-6.252-4.318-7.5-2.5-.963-3.161-3.29-4.711-4.938-1.23-1.309-1.1-2.471.452-3.637,2.75-2.064,5.91-4.048,6.087-7.935.279-6.128.95-12.567-2.211-18.051s-3.135-11.2-3.926-17.112c-1.881-14.08.345-28.805-6.747-42.154-2.979-5.607-1.655-12.1-1.2-18.169.271-3.591.384-6.973-1.226-10.183-1.51-3.011-.479-3.616,2.535-3.631,13.486-.069,26.973-.544,40.454-.4,4.563.05,5.966-1.4,5.424-5.695A56.545,56.545,0,0,1,998.952,98.148Z" fill="#f5f2f2"/>
    <path id="Idaho" d="M585.84,237.662c8.989,6.62,4.339,15.272,3.393,22.887-2.78,22.364-6.434,44.618-9.593,66.936-.546,3.859-1.971,4.01-5.561,3.394-21.038-3.61-42.22-6.4-63.216-10.222-28.254-5.144-56.544-10.152-84.58-16.526,4.011-19.026,8.178-38.1,11.977-57.247,1.1-5.563,4.469-10.11,5.76-15.622.878-3.747.244-6.05-2.9-7.1-3.4-1.132-2.9-3.007-2-5.319,1.124-2.876,3.411-4.888,5.612-6.865a48.948,48.948,0,0,0,11.662-15.329,64.361,64.361,0,0,1,7.617-11.575c2.512-3.211,3.244-7.019.483-10.055-8.03-8.83-6.93-19.534-5.1-29.45,4.9-26.49,11.1-52.739,16.541-79.134.856-4.158,2.183-5.316,6.29-3.928a73.108,73.108,0,0,0,11.556,2.534c2.333.384,3.229.481,2.447,3.577-2.169,8.586-3.145,17.477-5.406,26.032-1.76,6.656,1.3,11.892,3.241,17.6.743,2.181,3.258,4.272.255,6.936-1.03.914.593,2.7,1.437,3.848,6.746,9.165,14.266,17.81,18.807,28.44a4.471,4.471,0,0,0,2.891,2.6c4.41,1.225,4.283,3.466,2.673,7.336-3.1,7.437-6.136,14.935-7.648,22.973-.686,3.65-.941,7.063,1.624,9.719,2.668,2.762,6.4,2.088,9.169.32,4.658-2.974,5.629.047,6.3,3.37,1.266,6.3,2.557,12.633,3.2,19.016.478,4.793,2.011,8.309,6.765,9.909,2.076.7,2.95,2.112,2.325,4.213-1.485,4.99,1.636,8.319,4.183,11.85a1.589,1.589,0,0,0,2.59.239c6.381-6.38,14-2.768,21.159-2.586,2.424.062,4.82.947,7.241,1.391C583.136,242.951,583.138,242.936,585.84,237.662Z" fill="#f5f2f2"/>
    <path id="Kansas" d="M1004.745,539.774c-25.621,1.61-51.274,1.046-76.906.794q-43.676-.43-87.331-2.223c-8.751-.365-17.608.062-26.326-1.535-1.6-.292-2.231-.4-2.121-2.27.758-12.752,1.389-25.513,2.029-38.272,1.039-20.7,2.111-41.393,3.009-62.1.115-2.65,1.509-2.309,3.176-2.385,7.165-.328,14.257.81,21.389,1.132,36.922,1.669,73.87,1.717,110.809,2.3,12.147.191,24.337.249,36.441-.591,6.591-.458,12.1,2.3,18.059,3.644,3.232.727,2.292,2.874.229,4.633-4.489,3.827-4.632,7.616-.433,11.525,3.6,3.35,5.127,8.559,9.9,10.908.539.266.609,1.822.615,2.781.127,22.465.623,44.921,1.679,67.36.161,3.414-.621,4.742-4.232,4.368A97.2,97.2,0,0,0,1004.745,539.774Z" fill="#f5f2f2"/>
    <path id="Nebraska" d="M994.8,430.751c-59.435,1.49-118.526.038-177.438-2.9.709-11.52,1.445-22.56,2.019-33.608.111-2.136-1.347-3.172-3.544-3.251-10.779-.389-21.553-.951-32.335-1.207-5.143-.122-10.163-1.7-15.353-1.059-2.322.285-2.221-1.417-2.144-2.946.293-5.792.557-11.587.936-17.374.964-14.713,2.134-29.415,2.876-44.138.19-3.772,1.325-5.12,4.962-4.4,8.828,1.741,17.819,1.719,26.743,2.194,36.186,1.928,72.369,4.051,108.631,3.806a6.222,6.222,0,0,1,3.976,1.515c3.178,2.316,6.56,4.367,9.955,6.362,1.2.7,2.452,1.324,4.122.3,6.866-4.206,13.527-3.184,20.884-.281,4.933,1.947,8.74,5.03,13.07,7.606a10.8,10.8,0,0,1,5.629,8.144c1.193,7.567,5.726,14.081,6.8,21.666.525,3.7.3,7.313,4.514,9.7,2.3,1.3,2.241,5.01,2.07,7.863a61.584,61.584,0,0,0,3.807,25.752c1.351,3.574,2.9,7.182,5.94,9.563C993.2,425.849,993.879,428.118,994.8,430.751Z" fill="#f5f2f2"/>
    <path id="South_Dakota" data-name="South Dakota" d="M962.921,220.219c-1.639,1.794-2.136,2.445-2.738,2.979-7.724,6.842-7.084,11.753,2.114,16.844a4.813,4.813,0,0,1,2.473,4.552c.05,19.15.191,38.3.277,57.451,0,.8-.155,2.259-.442,2.312-6.264,1.156-2.556,4.86-1.772,7.453,1.361,4.5,2.683,8.885.1,13.351-2.117,3.669.349,7.572-.253,11.668-8.934-6.679-18.276-10.39-29.128-9.211-.987.107-2.415-.362-2.92.147-5.768,5.817-9.555-.069-13.134-2.738a13.228,13.228,0,0,0-8.951-3.089c-22.138.606-44.269-.457-66.358-1.421-17.856-.779-35.737-1.7-53.569-3.027-5.048-.376-10.208-.322-15.276-1.483-2.386-.547-2.935-1.051-2.768-3.322,1.523-20.816,2.135-41.742,4.749-62.417,1.387-10.976,1.955-21.914,2.726-32.885.152-2.158.3-3.115,3.462-2.819,13.021,1.22,26.106,1.851,39.179,2.433,23.882,1.062,47.741,2.731,71.658,2.927q20.982.171,41.962.287C943.416,220.254,952.515,220.219,962.921,220.219Z" fill="#f5f2f2"/>
    <path id="North_Dakota" data-name="North Dakota" d="M912.559,215.67c-14.823,0-29.688.708-44.46-.166-22.207-1.314-44.458-1.74-66.647-3.515-6.253-.5-12.548-1.7-18.858-1.108-3.37.317-3.982-1.138-3.611-3.971,2.127-16.244,1.738-32.681,3.845-48.943.978-7.552.933-15.235,1.4-22.856.56-9.232,1.266-18.456,1.685-27.693.116-2.535,1.306-2.56,3.158-2.357,16.838,1.849,33.747,2.452,50.663,3.175,26.257,1.122,52.5,2.506,78.789,2.713,7.995.064,15.99.327,23.984.268,2.163-.015,2.938.4,3.76,2.6a26.25,26.25,0,0,1,1.6,12.066c-.724,7.922-.8,16.027,3.363,23.28,4.856,8.469,2.085,17.95,3.937,26.766,1.406,6.694-.288,13.538,1.646,20.175a38.212,38.212,0,0,0,2.586,6.374,24.27,24.27,0,0,1,2.045,5.041c2.11,8.586,1.565,9.386-6.921,9.39q-20.984.009-41.965,0C912.558,216.5,912.559,216.085,912.559,215.67Z" fill="#f5f2f2"/>
    <path id="Missouri" d="M1147.219,569.27c1.055-1.057,2.121-2.1,3.161-3.175,2.47-2.545,4.99-5.039,2.662-9.051-2.258-3.892-5.046-5.942-10.032-5.388-9.528,1.059-19.132,1.445-28.708,2.063-25.008,1.613-50.041,2.578-75.094,3.2-4.281.1-8.587.713-12.91.833-2.467.068-3.537-.361-3.434-3.2.637-17.636-1-35.233-1.108-52.871-.072-11.621-.578-23.265-.626-34.9-.005-1.335.165-2.872-1.21-3.584-4.972-2.573-6.7-8.07-10.622-11.586-2.249-2.015-2.727-4.126.443-5.908,2.38-1.338,3.925-3.42,3.094-6.147-.781-2.558-2.4-4.681-5.5-5.03-5.505-.618-8.753-3.487-10.524-8.981-1.378-4.276-6.747-6.324-7.754-11.921h4.716c17.137.005,34.331.758,51.383-.958,15.447-1.554,31.066-.766,46.391-3.78,3.994-.785,10.114,5.981,9.353,9.927-1.908,9.882,2.916,17.39,8.786,24.443a28.86,28.86,0,0,0,7.987,6.67c4.552,2.568,6.474,6.555,7.236,11.565,1.1,7.209,3.081,8.3,10.27,6.6,1.891-.448,3.931-.929,5.53.912a4.253,4.253,0,0,1,.277,5.494c-7.113,11.456-4.556,20.463,6.621,27.632,2.2,1.412,3.65,3.265,6.865,2.824,3.743-.514,5.422,2.77,6.364,5.786a79.006,79.006,0,0,1,2.938,12.424c.568,4.034,2.979,6.9,5.123,9.987.52.749,1.525,1.724,2.24,1.672,2.264-.164,4.927-.541,4.419,2.644s.932,7.275-3.8,9.142c-4.039,1.6-5.932,5.61-6.862,9.518-3.638,15.286-.651,12.049-16.78,13.838Z" fill="#f5f2f2"/>
    <path id="Oklahoma" d="M853.99,556.826c-18.271-.725-36.554-1.25-54.8-2.322-4.453-.261-8.912-.869-13.387-.738-2.6.076-3.172-.732-2.386-3.185a14.891,14.891,0,0,0,.247-4.46c-.011-7.638-.024-7.616,7.714-6.954,27.639,2.365,55.347,3.084,83.066,3.88,36.3,1.042,72.6.95,108.9.937,10.827,0,21.656-.072,32.482-.262,2.3-.04,3.379.357,3.107,2.928-1.6,15.1,4,29.354,5.393,44.12.809,8.6,1.4,17.2,1.524,25.824.2,13.494-.038,26.993.109,40.488.037,3.454-1.006,5.343-3.863,2.532-9.027-8.882-20.241-7.04-31.066-6.809-5.289.113-10.728,1.266-14.893,4.745-2.677,2.236-4.142,1.211-5.958-.513-3.464-3.289-7.376-5.5-12.325-5.315a7.78,7.78,0,0,0-2.468.245c-8.36,3.259-10.821,3.242-19.613-.864-1.965-.919-3.651-.863-5.018.551-3.7,3.831-5.928,1.11-6.739-2.037-1.588-6.162-5.261-6.126-9.959-4.389-5.031,1.86-9.128-2.277-13.93-2.134-1.544.046-3.106-1.205-4.68-1.254-3.752-.118-5.844-1.421-7.016-5.384-1.351-4.569-3.763-4.993-7.669-2.278a2.72,2.72,0,0,1-3.238.23c-3.494-2.206-6.944-4.484-10.378-6.784-1.007-.675-.587-1.739-.555-2.726q.728-22.44,1.374-44.882c.173-6.315,1.142-12.576.944-18.93-.1-3.269-1.222-4.516-4.415-4.388-3.494.141-7,.032-10.5.032Z" fill="#f5f2f2"/>
    <path id="Washington" d="M455.011,162.236c-15.61-2.538-30.663-6.088-45.689-9.665-7.4-1.763-14.465.2-21.607.586-13.821.75-27.358.9-40.407-4.608-7.165-3.027-14.259-5.268-22.328-2.141-5.4,2.091-11.068-4.2-10.151-9.934.836-5.231.294-10.712-4.308-13.932-6.357-4.448-11.931-10.566-20.371-11.345-.837-.077-1.738-.063-1.988-1.047-.188-.741.245-1.116,1.052-1.275,6.233-1.228,4.994-6.084,4.693-10.234-.15-2.062-1.172-4.06-1.8-6.079.362-.215.605-.476.867-.5,2.43-.183,5.939.629,6.787-1.72.989-2.743-2.6-3.862-4.527-5.173-1.949-1.325-2.366-2.789-2.336-4.967.144-10.2,1.814-20.433-1.647-30.534-1.163-3.392.16-7.178,2.089-11.2,6.9,8.324,15.7,12.6,25.874,14.6a8.366,8.366,0,0,1,6.408,4.8c.908,2.042,3.384,2.95,5.623,3.8,3.489,1.319,3.675,5.058,1.185,7.666-2.82,2.952-1.44,6.848-.934,10.365.18,1.246,1.328,2.361,1.475,3.6.235,1.991-.1,4.487,2.691,4.359,2.869-.132,4.9-2.809,4.357-5.116-1.475-6.294,1.562-10.653,4.7-15.424,2.394-3.639,1.157-8.081.836-12.173-.323-4.118-1.06-8.045,1.176-12.093,1.867-3.379-1.036-6.212-2.563-9.117-.645-1.228-2.3-2.7-1.105-4,.955-1.042,2.6.228,3.9.59q38.3,10.648,77.043,19.518,22.6,5.171,45.286,9.993c2.6.557,4.238,1.1,3.525,4.343q-6.518,29.6-12.845,59.241c-1.618,7.506-3.008,15.067-4.837,22.521C453.837,151.238,455.5,156.473,455.011,162.236Z" fill="#f5f2f2"/>
    <path id="Georgia" d="M1426.854,728.684c-3.468,0-6.578.125-9.675-.029-4.425-.221-5.8,2.016-5.683,6.1.086,3.018,2.238,5.971.532,9.159-.464-.137-.906-.163-.939-.293-2.416-9.348-9.8-4.6-14.868-4.687-8.558-.151-17.139,1.142-25.714,1.79-13.35,1.01-26.708,1.936-40.051,3.034a4.461,4.461,0,0,1-4.853-2.377,44.25,44.25,0,0,1-6.526-18.545,35.4,35.4,0,0,0-2.005-9.075c-2.53-6.513-1.451-12.75,1.275-18.7,1.546-3.375,1.817-6.289-.315-9.228-12.378-17.069-14.712-37.859-21.145-57.118-3.024-9.054-4.858-18.533-8.285-27.412-1.788-4.631.492-5,3.33-5.363,12.422-1.587,24.883-2.876,37.308-4.442,7.94-1,15.842-2.3,23.853-3.479a6.835,6.835,0,0,1-.012,1.51c-3.059,8.428-.679,13.343,8.243,15.315,4.041.893,6.193,2.678,8.012,6.331,2.531,5.085,6.982,8.692,11.764,11.788,8.381,5.428,16.231,11.435,21.865,19.911,1.771,2.665,4.582,4.286,7.088,6.185,1.453,1.1,3.594,1.837,4.3,3.286,3.777,7.72,10.172,13.723,13.885,21.4a16.551,16.551,0,0,0,7.718,8.07c2.115,1.045,2.264,1.821,1.035,3.914a37.7,37.7,0,0,0-5.275,15.314,27.247,27.247,0,0,1-1.959,8.03C1426.962,715.458,1426.521,722.151,1426.854,728.684Z" fill="#f5f2f2"/>
    <path id="Iowa" d="M1014.776,409.7c-9.52,0-16.361-.233-23.176.09-3.927.186-5.087-1.488-5.719-4.993a80.359,80.359,0,0,1-.785-13.846c-.04-5.526-.2-11.047-5.226-14.847a2.11,2.11,0,0,1-.809-1.164c-2.429-14.722-9.062-28.174-12.806-42.494a8.484,8.484,0,0,1,.481-6.284c2.395-4.606,2.076-9.42.095-13.939-1.542-3.518-.377-3.732,2.751-3.754,17.145-.122,34.3-.19,51.429-.761,22.1-.737,44.182-1.89,66.267-2.965,4.284-.208,8.559-.078,12.883-.6,3.51-.42,4.783,3.436,4.675,6.713-.164,4.922-.838,9.831.971,14.622.826,2.188,1.468,5.2,3.647,5.647,8.245,1.709,11.219,9.492,16.951,14.043,10.882,8.64,8.119,22.81-5.065,27.811a49.648,49.648,0,0,1-5.25,1.409c-6.33,1.633-8.7,8.744-4.222,13.5,2.422,2.569,2.389,4.44.54,7.311-2.838,4.408-4.085,9.653-6.919,14.155-1.475,2.344-2.459,3.293-4.556.9-.975-1.114-2.388-1.971-3.012-3.235-1.129-2.288-2.965-2.587-4.983-2.215-13.086,2.411-26.363,2.23-39.558,3.2C1039.62,409.015,1025.887,409.99,1014.776,409.7Z" fill="#f5f2f2"/>
    <path id="Illinois" d="M1125.72,338.742c7.238-1.693,14.715-1.163,22.059-1.734,13.2-1.027,26.424-1.772,39.6-3.168,4.375-.464,7.838-.356,8.148,5.738a20.714,20.714,0,0,0,3.65,10.645c6.469,8.844,5.5,19.157,6.653,29.033,1.517,12.954,2.7,25.948,3.95,38.932.759,7.894,1.384,15.8,2.033,23.706a3.13,3.13,0,0,1-.31,1.906c-3.1,4.416-1.64,8.68.771,12.576,2.537,4.1,2.135,7.758.541,12.122a79.84,79.84,0,0,1-7.876,16.4c-2.047,3.152-1.994,7.35-1.931,11.069.082,4.835-1.161,9.528-.95,14.322.082,1.864-.935,2.647-2.4,3.263-8.715,3.663-8.945,4.241-5.058,12.967-3.418.44-5.869-1.907-8.744-2.792-5.732-1.764-8.7-.688-11.1,4.924-1.5,3.516-2.67,2.231-4.317.242-3.252-3.926-3.3-8.828-4.416-13.44-1.424-5.911-2.327-12.912-9.624-14.169-5.289-.912-8.228-4.271-11.934-7.159-4.657-3.629-4.841-7.737-2.354-12.539a32.283,32.283,0,0,0,3.039-7.75c1.459-6.473-3.347-11.657-9.58-9.588-4.806,1.6-6.652.926-7.131-4.387-.51-5.65-3.523-9.936-8.609-13.1a33.315,33.315,0,0,1-15.371-21.018,12.852,12.852,0,0,1,1.9-10.3c4.088-6.609,6.924-13.839,10.737-20.568,1.637-2.887.827-5.3-.965-7.8-4.441-6.188-3.757-7.73,3.968-9.485,9.028-2.052,16.531-11.575,17.091-20.8.472-7.773-5.17-11.393-9.683-15.878C1126.853,340.266,1125.56,340.241,1125.72,338.742Z" fill="#f5f2f2"/>
    <path id="Wisconsin" d="M1105.741,178.952c-.69,1.971-2.35,2.9-2.785,4.787-1.624,7.043-1.732,6.748,5.554,6.548,4.1-.113,8.659.945,11.226,4.131,4.207,5.223,9.53,7.157,15.737,8.088a49.55,49.55,0,0,1,8.558,2.36c7.535,2.573,15.1,4.625,23.221,4,3.251-.248,6.813-.309,7.556,4.439.272,1.733,2.124,2.235,3.805,2.482,3.811.559,5.123,2.925,4,6.385-1.059,3.272-.173,5.4,2.205,7.86,2.2,2.282,1.8,6.452,4.947,8.433a34.438,34.438,0,0,1-3.5,4.717c-3.178,3.076-4.457,6.87-4.8,11.1-.151,1.883.025,3.866,1.837,4.865,2.086,1.15,3.3-.733,4.648-1.876,2.725-2.319,3.8-5.8,5.945-8.52.568-.721.812-2.1,2.063-1.789,1.293.316,1.431,1.655,1.725,2.765.463,1.746-.479,3.252-.931,4.793-1.364,4.647-4.515,9.009-1.86,14.21a2.1,2.1,0,0,1-.455,1.807c-4.211,4.708-3.921,10.329-3.347,16.011.184,1.824.545,3.666-.119,5.44-3.682,9.855-1.12,19.44,1.434,28.945.737,2.744-.463,5.7,1.768,8.569-8.73.8-17.009,1.694-25.308,2.294-13.863,1-27.738,1.855-41.613,2.684-2.686.16-5.675.848-7.171-2.692-.282-.668-1.677-.9-2.585-1.265-7.966-3.225-10.33-7.729-8.865-16.193.406-2.348.871-4.891-.61-7.2-2.9-4.511-3.823-9.7-4.874-14.811-.993-4.835-3.4-8.829-8-10.508-7.48-2.732-10.559-10.33-16.866-14.326-2.966-1.879-5.858-3.947-9.269-4.468-3.774-.576-4.9-2.919-5.459-6.036a41.322,41.322,0,0,1,.7-19.208c.964-3.23-.077-4.98-1.941-6.975a8.678,8.678,0,0,1,2.332-13.923c9.464-4.59,8.563-9.557,7.792-17.147-.217-2.137-.681-4.294-.355-6.384.436-2.8,1.1-5.553,5.224-3.486,2.9,1.457,5.85-.064,8.585-1.089a66.772,66.772,0,0,0,14.05-7.192C1101.668,180.421,1103.3,179.083,1105.741,178.952Z" fill="#f5f2f2"/>
    <path id="Florida" d="M1426.474,869.577c-5.725-4.821-9.095-10.936-12.83-16.784-.855-1.338-.668-2.238.223-3.548,1.76-2.59,3.128-5.441,4.753-8.128,1.549-2.561,1.291-4.977-1.209-6.432-2.667-1.552-5.019-.4-6.635,2.158a12.216,12.216,0,0,1-1.29,2.1c-.847.867.267,3.767-2.379,2.638-1.77-.755-2.364-2.221-1.985-4.493,1.3-7.807,2.585-15.617,2.79-23.587.268-10.441-3.919-17.956-13.665-21.881-7.388-2.975-12.528-8.441-17.548-14.264-6.656-7.721-14.247-13.986-25.278-13.619-4.278.143-7.748,1.57-8.335,6.571-.07.594-.384,1.537-.785,1.659-7.26,2.2-12.912,7.972-20.694,9.167a2.957,2.957,0,0,1-3.237-1.243c-16.516-19.779-37.622-21.1-60.532-15.047-4.241,1.121-6.832-.062-7.029-4.357a8.209,8.209,0,0,0-4.765-7.5c-1.884-1.012-2.721-2.532-2.178-4.524.524-1.921,2.3-1.389,3.756-1.551,23.227-2.594,46.459-5.152,69.661-7.96,2.552-.308,3.321.721,4.005,2.486,2,5.166,5.007,6.315,10.966,5.818q18.544-1.547,37.2-2.554c11.42-.6,22.836-1.443,34.212-2.589,2.5-.252,2.827.937,3.437,2.389,1.061,2.527,3.231,4.306,5.57,3.747,2.47-.59,3.608-3.227,3.425-6.019-.065-.992-.407-2.171-.007-2.949,1.123-2.187-3.652-5.363.671-6.529,6.741-1.818,10.334-.053,12.075,4.7a195.662,195.662,0,0,0,32.2,57.091c1.01,1.235,1.749,1.708,0,3.1-1.171.934-.061,2.807.4,4.216,3.031,9.2,8.449,17.111,13.556,25.2,7.049,11.17,15.269,21.645,20.145,34.114a36.048,36.048,0,0,1,2.816,14.511,36.973,36.973,0,0,0,.907,10.379c1.726,6.857-1,12.938-3.22,19.087a8.906,8.906,0,0,0-.726,4.339c.946,6.641-2.3,12.144-8.484,13.913a34.623,34.623,0,0,1-7.374,1.239c-2.7.165-4.934,1.372-5.035-4.113-.1-5.681-5.215-10.822-9.439-15.241a16.617,16.617,0,0,0-10.995-5.525c-5.061-.465-6.707-5.666-7.891-9.905a12.634,12.634,0,0,0-5.22-7.459,12.3,12.3,0,0,1-5.689-10.5c-.006-3.823-2.885-4.843-5.118-5.9C1427.143,864.789,1427.212,867.727,1426.474,869.577Z" fill="#f5f2f2"/>
    <path id="Arkansas" d="M1023.074,562c10.32-1.46,20.322-.914,30.29-1.289,20.744-.78,41.5-1.562,62.194-3.139,9.408-.717,18.87-.916,28.237-2.15a5.158,5.158,0,0,1,5.747,2.923c1.23,2.285-.291,3.634-1.794,5.077-1.525,1.463-3.3,2.679-4.116,4.854-1.206,3.227.412,5.772,3.8,5.536,4.093-.285,8.181-.636,12.869-1.006-2.091,5.509-4.628,10.43-5.807,15.657-2.7,11.954-11.231,21.479-13.456,33.575a11.891,11.891,0,0,1-2.25,5.446c-6.252,7.279-8.2,16.714-12.774,24.818-2.38,4.217-3.177,8.719-1.037,13.255,1.9,4.017,1.017,8.19,1.049,12.292.023,3.023-2.678,2.434-4.482,2.467-8.8.159-17.578.745-26.366,1.264-16.081.949-32.2,1.225-48.3,1.925-2.471.108-3.5-.211-3.423-3.027.108-3.808-.791-7.667-.482-11.441.348-4.244-1.635-5.327-5.2-5.218-1.33.041-2.66.163-3.984.3-2.98.319-4-.881-4.023-3.963-.152-18.486-.783-36.972-.706-55.456C1029.122,590.189,1025.908,576.23,1023.074,562Z" fill="#f5f2f2"/>
    <path id="Alabama" d="M1318.055,735.079c-18.123,2.207-35.78,4.41-53.451,6.481-5.741.673-11.515,1.183-17.288,1.422-3.28.135-5.959.759-7.139,4.137-1.22,3.491.348,6.065,2.9,8.3,5.261,4.61,5.309,9.346.122,13.869-.608.53-1.44,2.074-2.272.762-1.893-2.985-6.724-3.7-6.081-8.8a5.027,5.027,0,0,0-4.833-5.447c-3.1-.087-2.372,3.322-3.205,5.313-.958,2.291,1.018,6.193-3.553,6.581-2.043.173-3.025-.571-3.329-2.66-4.508-31-7.578-62-5.618-93.467,1.292-20.745.755-41.612.715-62.424-.007-3.994,1.349-5.089,4.971-5.441q28.807-2.8,57.581-5.955c3.993-.434,6.236-.053,7.572,4.761,5.805,20.911,12.425,41.595,18.335,62.478,2.258,7.978,6.389,14.8,10.716,21.646,1.247,1.972,2.042,3.822.847,6.43-3.339,7.286-4.273,14.711-1.367,22.618C1315.938,721.831,1315.784,728.639,1318.055,735.079Z" fill="#f5f2f2"/>
    <path id="North_Carolina" data-name="North Carolina" d="M1552.346,551.78c-2.642,7.2-9.011,8.934-14.886,10.809-9.712,3.1-23.1,18.28-23.94,28.278-.343,4.09-2.559,5.373-6.083,7.1-9.125,4.462-15.687.6-22.438-4.793-5.412-4.322-11.518-7.82-16.678-12.4-6.423-5.705-13.383-6.957-21.405-4.974-3.816.943-7.718,1.538-11.581,2.295-4.152.813-7.857,1.875-10.544-3.519-1.711-3.437-6.163-4.695-10.309-4.841-10.306-.363-20.474,1.377-30.71,2.068a19.232,19.232,0,0,0-9.736,3.394c-11.479,8.09-24.781,9.817-38.133,11.526a86.912,86.912,0,0,1-11.995.981c5.311-6.67,6.777-16.1,16.842-19.065,8.3-2.447,14.231-8.931,19.828-15.329a13.994,13.994,0,0,1,5.907-3.791c10.834-4.379,21.107-9.724,24.564-22.378.549-2.008,1.446-3.121,4.142-3.525,17.711-2.655,35.349-5.788,53.022-8.7,31.648-5.213,63.04-11.747,94.462-18.133,6.127-1.245,8.022-.021,12.321,7.617-5.538.2-9.332,3.87-13.377,6.676-2.769,1.922-4.758,2.477-7.549.834-.875-.515-1.867-1.494-3.016-.158-1.181,1.371-.465,2.426.36,3.492,3.958,5.117,9.671,4.605,14.555,3.081,4.053-1.264,8.118-1.088,12.111-1.984,3.158-.709,3.686,2.221,3.7,4.538.037,5.8-3.69,14.432-13.125,14.527-5.145.052-10.3.286-15.433-.619-1.411-.248-3.713-1-4.23,1.293-.537,2.379,1.742,2.313,3.251,2.793,2.2.7,4.561,1.145,6.545,2.251,1.779.991,5.44.033,5.163,3.013-.32,3.434-1.991,6.749-5.936,7.867-1.322.375-3.421-.145-3.108,2.194.325,2.431,2.479,1.748,4.01,1.8a16.077,16.077,0,0,0,8.93-2.709C1549.079,552.533,1550.134,551.334,1552.346,551.78Z" fill="#f5f2f2"/>
    <path id="Mississippi" d="M1119.466,752.487c2.374-11.447,4.959-22.644,12.928-31.979,5.666-6.637,5.556-16.526,1.1-24.152a27.98,27.98,0,0,1-3.712-17.959c.553-4.759,1.06-9.737-1.334-14.621-1.59-3.244-.9-7.177,1.394-10.416a30.058,30.058,0,0,0,4.429-10.39,19.155,19.155,0,0,1,3.845-7.252,38.073,38.073,0,0,0,7.369-15c2.225-9.769,3.405-11.367,12.738-11.743,16.88-.681,33.648-2.587,50.453-4.067,2.947-.26,2.7.7,2.67,2.852-.285,22.477-.277,44.959-.738,67.432-.16,7.806-.473,15.627-.819,23.43-.835,18.806,2.754,37.161,5.012,55.657.439,3.594.293,7.386,1.44,10.736,1.418,4.141-.751,4.13-3.517,4.236-4.614.177-9.238-.863-13.855.427-4.482,1.253-9.038,2.247-11.6,6.716-1,1.751-1.882,1.514-2.9.033-1.585-2.3-3.133-4.641-4.855-6.841-3.357-4.288-4.648-8.521-2.076-13.963,2.5-5.284,1.524-6.424-4.3-6.209q-21.088.78-42.083,3.013C1127.328,752.827,1123.518,752.487,1119.466,752.487Z" fill="#f5f2f2"/>
    <path id="New_York" data-name="New York" d="M1565.558,319.107c-8.553-1.953-16.617-5.363-24.828-8.336a6.387,6.387,0,0,1-3.4-3.461c-2.5-4.886-6.871-7.992-10.763-11.57-1.786-1.643-3.618-1.008-5.6-.549-31.191,7.238-62.555,13.654-94,19.671-4.008.767-8.068,1.258-12.09,1.956-1.647.286-3.971,2.261-4.625-.282-.59-2.3-1.978-5.064.911-7.6,5.491-4.826,10.055-10.575,14.443-16.427,4.254-5.675,3.733-11.607-1.588-16.442-3.135-2.85-2.113-4.706,1.138-6.333a45.7,45.7,0,0,1,20.557-4.9c8.439-.031,16.9.409,25.171-1.9,10.82-3.026,16.954-10.679,19.658-21.03,1.179-4.514-2.221-8.459-4.257-12.362-1.114-2.137-1.425-3.484.633-5.372,5.106-4.684,7.837-10.963,10.75-17.115,4.838-10.217,11.961-17.564,23.76-19.738,8.073-1.487,15.976-3.924,23.921-6.063,2.17-.584,2.909-.432,3.67,2.125,4.132,13.885,5.7,28.281,8.921,42.334.436,1.9-.013,5.687,4.382,4.391,1.53-.452,1.3,1.305,1.59,2.348a154.261,154.261,0,0,1,5.827,44.914c-.253,10.977,3.072,21.736,5.455,32.477.175.793,1.06,2.052.873,2.21-3.873,3.251-2.637,7.555-2.4,11.761-1.921-4.019-2.065-8.594-5.579-11.766-.931-.84-1.11-2.568-2.767-1.345-1.022.754-2.064,1.694-.944,3.315a40.4,40.4,0,0,1,2.314,4.338Z" fill="#f5f2f2"/>
    <path id="Pennsylvania" d="M1405.694,314.245c2.431,7.939,2.461,8.093,10.5,6.545,33.7-6.488,67.442-12.757,100.784-20.957,6.593-1.621,10.325-.138,14.769,6.181,2.642,3.755,4.606,8.166,9.881,9.063,1.446.246,1.269,1.218.7,2.229-.9,1.6-.769,3.955-1.683,5.048-4.355,5.207-3.211,11.345-3.435,17.183-.176,4.6,2.636,8.046,5.977,10.911,2.749,2.358,7.212,4.046,8.1,6.9,1.032,3.333-4.25,5.164-5.948,8.344-1.936,3.626-4.043,7.162-9.388,5.528-1.019-.311-3.284.84-3.79,1.888-3.4,7.051-10.345,6.294-16.237,7.537q-38.22,8.064-76.518,15.77c-10.792,2.185-21.641,4.1-32.464,6.125-3.509.659-2.582-2.655-2.848-3.906-1.848-8.693-3.66-17.428-4.755-26.24-1.827-14.7-4.936-29.165-7.275-43.767-.462-2.887.416-4.318,2.385-5.8C1398.138,320.057,1401.787,317.233,1405.694,314.245Z" fill="#f5f2f2"/>
    <path id="Louisiana" d="M1179.742,777.884c-2.824-1.341-5.617-2.757-8.483-4-3.068-1.334-6.129-2.089-9.534-.681-4.8,1.983-7.1,5.185-5.838,8.822,1.438,4.144,7.3,6.814,11.99,5.3,2.444-.787,4.787-1.889,8.571-3.41-2.113,2.293-3.707,3.64-1.662,5.1,2.681,1.913,5.407,4.15,9.015,2.157.687-.379,1.1-1.229,1.688-1.818.621-.627,1.419-1.03,2.166-.361.82.735,1.146,2.26.276,2.6-2.87,1.13-3.552,4.118-5.585,5.9-3.681,3.218-3.48,6.077.88,8.264,3.54,1.776,7.318,3.073,10.944,4.686a28.421,28.421,0,0,1,4.316,2.444,3.015,3.015,0,0,1,1.038,4.339c-1,1.371-2.313-.156-3.437-.67-9.158-4.192-16.988-10.95-26.778-13.9-1.416-.426-3.155-2.262-4.422-.245-1.218,1.94.546,3.269,1.8,4.636,2.511,2.746,2.485,8.26-.793,12.769,1.619-6.91-3.506-7.794-6.72-8.734-2.613-.764-5.529,1.943-7.421,4.825-2.829,4.309-9.7,3.31-12.813-1.624-.616-.977-.916-2.429-1.784-2.927-8.244-4.735-15.622-11.2-25.045-13.593-5.2-1.319-7.658.782-8.294,6.3-.231,2-1.5,1.434-2.431,1.544-4.833.567-9.475-.464-14.176-1.537-10.985-2.509-21.723-8.986-34-1.343,2.317-8.33,4.074-15.446,3.45-22.9a33.288,33.288,0,0,1,2.421-16.058c2.528-5.95,1.338-11.916-1.4-17.285-4.324-8.469-5.83-18.373-12.856-25.485a3.574,3.574,0,0,1-.683-2.259c-.22-9.317-.295-18.639-.616-27.952-.1-2.877.915-3.544,3.674-3.609,14.938-.353,29.9-.532,44.8-1.566,10.248-.711,20.507-1.049,30.744-1.785,2.174-.156,3.269-.3,3.461,2.457a28.465,28.465,0,0,0,4.463,12.917,16.4,16.4,0,0,1-1.378,19.056c-8.377,10.051-11.5,22.083-13.662,34.537-.562,3.234.608,4.375,4.053,4.088,16.5-1.374,33.019-2.5,49.526-3.775,3.648-.283,5.95.118,3.662,4.575a8.706,8.706,0,0,0,.927,9.776c2.345,3.183,4.512,6.5,6.757,9.753Z" fill="#f5f2f2"/>
    <path id="Wisconsin-2" data-name="Wisconsin" d="M1229.257,352.725c9.988-18.176,12.65-36.389,2.171-54.849-6.133-10.8-5.816-21.761-2.6-33.1,1.269-4.47,2.456-8.9,1.624-13.628-1.107-6.287,3.29-10.115,6.678-14.3,5.256-6.494,9.725-14,19.293-15.133,2.069-.244,1.867-1.9.981-3.453a9.788,9.788,0,0,1-1.512-5.138c.1-5.021,2.622-7.249,7.311-5.71,9.386,3.08,18.4,7.177,27.872,10.1,3.011.929,7.437,2.752,4.015,8.148-1.285,2.027-.148,5.162,1.905,6.774,5.953,4.675,3.148,11.47,4.314,17.246.372,1.843-3.7,2.12-4.134,4.47-.946,5.092-3.829,8.822-7.434,12.414-3.525,3.513-.982,8.839,2.147,11.594,3.309,2.912,7.447,2.492,10.382-1.391,2.377-3.144,4.1-6.777,6.24-10.108,4.207-6.539,8.348-6.764,12.42-.328,7.387,11.673,11.394,24.416,10.968,38.364-.038,1.244.642,3.084-2.15,2.222-2.266-.7-3.1,1.64-3.808,3.2-4.405,9.779-8.883,19.537-12.872,29.488-1.186,2.958-2.562,4.41-5.639,4.868-8.3,1.235-16.569,3.7-24.86,3.737-6.461.033-12.863-.312-19.335.562C1252.012,350.289,1240.734,351.412,1229.257,352.725Z" fill="#f5f2f2"/>
    <path id="Ohio" d="M1387.978,326.844c2.354,13.919,4.593,27.177,6.853,40.432.11.647.794,1.5.571,1.853-5.254,8.387.164,17.37-1.516,25.958-1.3,6.623-1.652,13.486-5.912,19.2-.788,1.058-1.222,2.672-2.6,2.855-8.816,1.171-10.739,8.929-14.543,14.918-.879,1.384-1.744,3.1-3.072,3.817-4.841,2.625-5.438,7.2-5.924,11.844a24.645,24.645,0,0,1-.844,4.793c-2.221,7.264-3.956,7.87-9.648,3.177a40,40,0,0,0-6.428-4.612c-2.177-1.16-4.688-2.006-6.656.717a3.641,3.641,0,0,1-3.494,1.528c-5.811-1.455-11.578.176-17.349-.073a13.553,13.553,0,0,1-10.642-5.273c-3.543-4.372-8.25-7.274-14.347-5.773-2.558.63-1.855-1.522-1.951-2.335-1.348-11.458-2.442-22.946-3.8-34.4-1.687-14.194-3.519-28.372-5.407-42.541-.326-2.451.018-4.922-.781-7.388-.748-2.31,1.145-3.358,3.093-3.5,9.552-.713,18.762-3.576,28.232-4.524,4.8-.48,9.647,1.27,14.294,2.82,2.652.885,5.238,1.967,7.871,2.912,4.881,1.752,9.512,2.342,13.847-1.675a10.487,10.487,0,0,1,5.8-2.56c6.57-.579,11.34-3.606,15.379-8.778C1373.885,333.977,1381.364,331.2,1387.978,326.844Z" fill="#f5f2f2"/>
    <path id="Tennesse" d="M1151.429,605.658c5.637-7.35,6.39-15.77,9.263-23.306,3.191-8.373,7.037-16.715,7.932-25.872a2.9,2.9,0,0,1,3.015-2.716c8.734-.666,17.462-1.4,26.192-2.114,3.446-.283,6.887-.633,10.337-.855,2.091-.134,3.279-1.437,2.887-3.187-.64-2.862.707-2.675,2.818-2.933,16.7-2.046,33.517-2.83,50.254-4.543,15.073-1.543,30.142-3.3,45.234-4.734,16.025-1.528,31.939-4.227,47.9-6.415l30.818-4.224c-2.612,6.527-5.053,12.481-11.692,15.352-4.571,1.976-7.966,6.417-13.74,6.074-1.3-.077-2.966,1.986-4.065,3.378-6.043,7.652-12.877,14.134-22.665,16.727-1.888.5-3.926,1.438-4.874,3.152-3.13,5.66-8.428,9.968-10.227,16.43-.52,1.867-1.3,2.741-3.578,3.077-17.091,2.513-34.22,4.59-51.431,6.129-13.611,1.217-27.156,3.158-40.754,4.55-11.656,1.2-23.346,2.07-35.021,3.083q-17.034,1.477-34.069,2.932C1154.673,605.752,1153.365,605.658,1151.429,605.658Z" fill="#f5f2f2"/>
    <path id="Kentucky" d="M1373.11,491.167a33.89,33.89,0,0,1-2.789,3.556c-6.892,6.569-13.43,13.147-18.862,21.321-6.329,9.522-17.372,12.827-28.949,13.882-15.078,1.374-30.063,3.747-45.126,5.321-14.464,1.512-28.975,2.583-43.47,3.789-7.754.645-15.524,1.111-23.275,1.784-1.75.152-4.346.557-3.617,2.982,1.057,3.514-1.621,3.456-3.19,3.607-8.08.774-16.2,1.151-24.285,1.846-2.533.217-1.886-1.526-1.66-2.505,1.2-5.231,1.862-10.332.257-15.7-.826-2.765,2.64-5.062,5.77-4.033a40.807,40.807,0,0,1,6.726,3.021,5.049,5.049,0,0,0,6.4-.775,4.538,4.538,0,0,0,.344-6.389c-2.384-3.044-1.311-4.223,1.864-5.155,4.863-1.427,7.62-4.353,6.764-9.891-.417-2.692.5-4.629,3.666-5.458a47.319,47.319,0,0,0,8.638-3.746,9.169,9.169,0,0,1,8.122-.226c3.536,1.676,6.276,1.506,8.774-1.633,1.508-1.9,3.8-1.43,5.559-.878,4.11,1.288,6.367.093,7.277-4.1.782-3.6,2.1-4.918,6.161-2.694,6.535,3.582,8.671,2.052,10.9-5.34a18.533,18.533,0,0,1,4.386-7.12,24.078,24.078,0,0,0,6.364-12c.53-2.539,1.672-2.971,4.089-2.927,9.245.169,12.545-3.921,10.672-13.188-.43-2.128,1.016-2.4,2.034-2.582,3.785-.67,7.49-.066,9.9,3.161,5.6,7.5,13.209,8.661,21.746,7.6a24.794,24.794,0,0,1,8.444.267,7.217,7.217,0,0,0,5.774-.817c1.652-1.1,3.17-3.427,5.508-1.334,3.322,2.972,9.5,4.261,8.986,9.635-.681,7.183,3.363,11.571,7.27,16.13C1363.823,484.707,1367.661,488.713,1373.11,491.167Z" fill="#f5f2f2"/>
    <path id="Virginia" d="M1547.167,491.818c-66.794,14.231-132.722,26.1-199.53,33.9,5.893-4.331,9.468-10.013,12.548-16.292,1.908-3.889,6.973-5.255,9.406-8.7,4.163-5.891,8.417-6.889,15.433-4.562,8.815,2.923,17.694-.031,25.839-4.168,3.23-1.64,6.29-3.584,9.756-4.761,2.5-.85,4.944-2.557,4.575-5.26-1.518-11.136,4.918-20,7.995-29.816a12.032,12.032,0,0,0,.839-2.264c.456-5.091,2.467-6.439,7.376-4.018,3.362,1.658,6.516-.8,7.484-5.482.732-3.538,2.034-6.7,4.872-8.861,6.8-5.183,9.522-12.267,10.51-20.445.652-5.395,1.215-5.5,6.1-2.687a41.8,41.8,0,0,0,5.634,3.1c2.812,1.078,5.529,1.2,6.668-2.543.294-.964-.062-2.534,1.846-2.281a2.974,2.974,0,0,1,2.812,2.429c.636,3.871,2.976,5.038,6.651,5.218,1.841.09,3.631,1.429,5.424,2.248,3.521,1.608,3.53,4.105,1.366,6.734a19.011,19.011,0,0,0-3.924,10.071c-.7,5.663,2.478,7.887,7.49,5.3,1.766-.911,2.683-1.023,4.209.439,2.686,2.574,6.034,3.442,9.866,3.84,4.518.47,7.648,4.649,12.035,6.153,1.4.481.406,3.108-.093,4.626-1.115,3.394-.5,6.227,2.317,8.427,1.6,1.244,2.469,2.515.339,3.838-4.1,2.546-1.65,4.964.055,7.319C1537.491,479.434,1541.236,486.039,1547.167,491.818Z" fill="#f5f2f2"/>
    <path id="Indiana" d="M1207.046,499.017c-.368-6.142.03-11.836,4.061-16.853,4.276-5.321,4.667-12.25,6.969-18.392,1.121-2.993-.845-5.788-2.173-8.454-1.734-3.479-2.914-6.582-.713-10.728,1.258-2.369.181-6.063-.085-9.141-1.376-15.945-3.405-31.827-4.351-47.819-.408-6.885-1.586-13.727-2.48-20.581-.369-2.835-.248-5.008,3.621-4.273a4.787,4.787,0,0,0,3.842-.654c9.018-6.682,19.827-6.141,30.166-7.459,8.666-1.1,17.352-2.059,26.013-3.2,3.06-.4,4.5-.243,4.915,3.762,2.424,23.609,4.9,47.23,8.272,70.715,1.237,8.608.968,17.3,2.686,25.847.873,4.337-2.631,6.276-6.117,5.816-6.493-.857-9.061,2.213-9.988,7.909-.644,3.957-3.551,6.611-5.815,9.587-1.924,2.53-4.229,5.188-4.509,8.144-.522,5.521-3.157,3.8-5.928,2.416-6.26-3.124-7.9-2.642-10.483,3.711-.869,2.137-1.2,4.005-4.307,2.506-1.33-.642-3.885-.715-4.82.13-4.02,3.637-8.249,3.023-12.876,1.813-3.059-.8-5.692,1.266-8.449,2.268C1212.062,496.975,1209.993,498.816,1207.046,499.017Z" fill="#f5f2f2"/>
    <path id="Maine" d="M1704.144,142.335c-1.345,3.079-4,4.676-6.4,6.3-3.848,2.6-7.8,4.994-10.764,8.68-1.312,1.629-3.25,2.249-5.211,2.682-4.139.913-7.616,2.489-7.948,7.45-.045.668-.151,1.449-1.055,1.273a3.962,3.962,0,0,1-1.611-.934c-.2-.169-.189-.611-.26-.931-.6-2.683-1.846-5.983-4.51-5.679-2.892.33-3.713,4.126-4.087,6.8-.614,4.4-1.347,8.886-.483,13.367.413,2.142.639,3.349-2.542,2.808-3.465-.588-5.379,1.575-5.481,5.274-.09,3.275-5.988,8.449-8.793,7.176-5.174-2.346-5.534,1.437-6.59,4.379a36.371,36.371,0,0,0-1.992,8.057c-.616,5.729-4.143,10.7-3.521,16.689-7.044-5.1-8.761-12.793-11.178-20.143-5.3-16.1-10.687-32.169-16.005-48.262-.341-1.033-1.9-2.77.319-3.061,4.024-.527,3.975-3.044,4.025-6.088a18.354,18.354,0,0,1,2.562-8.857c3.41-5.919,4.915-12.091,3.733-19.023a20.7,20.7,0,0,1,.866-11.312,5.542,5.542,0,0,0,.623-2.836c-2.115-10.785,3.276-20.012,6.1-29.76.855-2.951,2.042-5.806,3.042-8.606,2.362.149,1.692,2.047,2.346,3.041,2.79,4.237,5.676,4.918,9.9,2.113,2.61-1.735,5.335-3.285,7.284-5.881,1.038-1.382,2.911-2.456,4.36-1.765,4.6,2.2,10.129,3.442,12.047,9.137,4.245,12.61,9.625,24.87,12.043,38.047.943,5.133,4.935,5.912,8.9,6.288,2.235.212,2.875.534,3.2,2.919a29.183,29.183,0,0,0,2.977,8.269c1.2,2.521,3.707,2.333,6.047,2.117,3.953-.366,6.366.33,4.335,5.182C1699.081,140.422,1701.82,141.374,1704.144,142.335Z" fill="#f5f2f2"/>
    <path id="South_Carolina" data-name="South Carolina" d="M1394.536,574.979c6.687-1.315,13.323-1.218,19.964-1.253,4.115-.022,7.785,1.87,8.8,5.221,1.459,4.836,4.315,4.1,7.578,3.585q12.184-1.912,24.351-3.955a6.171,6.171,0,0,1,5.052,1.251c10.15,7.365,20.326,14.7,30.643,21.827,2.252,1.556,1.907,2.327.365,4.055-5.484,6.144-8.542,13.362-10.8,21.359-3.055,10.8-10.719,18.955-19.032,26.22-4.2,3.67-8.495,7.509-14.623,7.849a2.822,2.822,0,0,0-2.693,1.939c-.359,1.532,1.22,1.863,2.081,2.378,1.357.814,3.759,1.085,2.238,3.285-1.664,2.405-3.031-.308-4.523-.859-2.079-.767-2.8-5.539-5.63-2.935-2.221,2.044-.018,5.434,1.679,7.049,2.7,2.569.864,3.992-.5,5.665-2.238,2.754-3.6-.316-4.814-1.215a6.66,6.66,0,0,1-2.8-4.505,4.592,4.592,0,0,0-1.038-2.754c-7.927-7.129-10.239-18.884-20.212-24.373a16.094,16.094,0,0,1-5.022-4.8c-5.854-8.259-13.5-14.348-21.965-19.769-5.26-3.37-10.031-7.659-12.474-13.8-1.341-3.37-4.276-4.3-7.441-4.9-3.714-.7-7.924-2.033-8.485-5.787a9.44,9.44,0,0,1,5.408-9.472C1371.606,581.435,1381.446,573.049,1394.536,574.979Z" fill="#f5f2f2"/>
    <path id="West_Virginia" data-name="West Virginia" d="M1462.338,404.281c-2.37,4.279-2.083,9.218-3.38,13.78-1,3.514-2.516,6.491-5.443,8.563a19.45,19.45,0,0,0-8.376,12.971c-.588,3.489-2.02,3.358-4.756,2.2-6.807-2.87-7.413-2.342-9.44,4.929a83.4,83.4,0,0,1-4.333,12.038c-3.038,6.7-6.079,13.327-5.061,20.972.255,1.917-.524,3.432-2.275,3.939-5.443,1.577-9.9,5.14-15.142,7.172-13.21,5.119-24.68,1.822-35.04-6.8a49.717,49.717,0,0,1-10.531-11.878c-2.906-4.676-2.342-7.663,1.916-11.108,3.96-3.2,4.838-7.8,5.143-12.46.284-4.324,1.466-7.619,5.122-10.616,3.915-3.209,6.128-8.154,8.36-12.779.6-1.237.863-2.225,2.537-2.541,9.45-1.78,12.066-9.564,14.223-17.245,1.39-4.95,1.62-10.226,2.572-16.737.976,5.505,1.829,9.633,2.408,13.8.481,3.463,2.006,4.866,5.621,4.117,7.054-1.461,14.214-2.455,21.2-4.164,2.1-.512,1.915,0,2.347,1.458a55.366,55.366,0,0,1,1.947,12.143c.122,1.831.475,3.408,2.122,4.128,1.967.861,2.516-1.167,3.207-2.26,3.677-5.818,9.288-9.647,14.2-14.206,1.13-1.048,1.914-.586,3.076-.336,2.245.482,4.609.925,6.692-.685Z" fill="#f5f2f2"/>
    <path id="Michigan" d="M1121.108,189.856a36.92,36.92,0,0,0,9.841-6.764c1.006-.992,2.534-2.084,3.811-2.07,9.209.1,14.95-5.84,20.4-11.847,2.813-3.1,3.928-1.828,5.372.706a12.265,12.265,0,0,1,1.624,7.185,3.245,3.245,0,0,0,1.595,3.406c1.469.752,1.941-.789,2.724-1.532,6.281-5.966,12.7-6.449,17.974.281,9.266,11.827,23.889,9.418,33.432,3.134,4.385-2.888,9.147-5.063,14.69-5.162,5.412-.1,10-3.147,14.892-5.04.225.357.508.6.517.849.308,7.831.658,10.56,11.218,9.019,2.087-.3,4.159-.2,6.269-1.14,1.995-.892,3.033,1.25,3.954,2.891,3.768,6.714,3.791,6.7,9.6,10.849-4.278.119-7.784.6-11.274-.245-4.349-1.052-7.63.033-9.642,4.523-4.751-4.094-10.364-7.631-16.2-4.789a138.388,138.388,0,0,1-19.97,7.811c-2.936.909-5.086,4.25-9.142,3.86-2.615-.252-4.041,2.521-5.77,4.191-.364-.188-.749-.259-.893-.484-.9-1.415,1.31-4.17-1.4-4.535-2.636-.356-2.578,2.511-3.306,4.218-3.474,8.145-6.9,16.312-10.409,24.634a2.272,2.272,0,0,1-.931-3.329c1.621-3.133,1.527-4.627-2.628-4.256-2.679.239-1.526-2.175-1.389-3.246.9-7.018.285-8.219-5.891-10.827-.789-.334-2.144.074-2.3-1.389-.59-5.625-5.81-5.981-8.987-5.706-12.048,1.045-22.555-4.572-33.852-6.505C1129.106,197.531,1124.6,194.993,1121.108,189.856Z" fill="#f5f2f2"/>
    <path id="Vermont" d="M1593.264,173.551a5.515,5.515,0,0,0,.586,5.778c2.572,3.636,1.089,6.662-1.616,9.153-4.031,3.713-6.633,7.508-4.521,13.412,1.124,3.141-.078,6.708-1.078,9.713-2.851,8.561-1.869,17.15-.147,25.484.948,4.59-2.029,9.244,1.035,13.577.736,1.041-.807,1.016-1.5,1.171-3.852.868-7.746,1.577-11.555,2.6-2.951.793-1.995-1.963-2.188-2.7-1.663-6.323-3-12.733-4.381-19.128-.676-3.128-1.355-6.274-4.779-7.559-1.307-.49-1.036-1.432-1.3-2.341-2.006-6.968-4.023-13.829-4.1-21.28-.072-6.561-4.329-12.319-5.112-18.979-.286-2.433.287-3.092,2.091-3.57,11.932-3.16,23.839-6.422,35.828-9.35C1595.961,168.207,1591.092,173.159,1593.264,173.551Z" fill="#f5f2f2"/>
    <path id="New_Hampshire" data-name="New Hampshire" d="M1594.452,249.979c-3.432.28-4.95-1.626-4.3-3.536,1.685-4.92.195-9.54-.694-14.13-1.7-8.755.457-17.08,1.957-25.515.172-.971.7-2.093.4-2.9-2.328-6.286.216-10.747,4.709-15.024,3.181-3.028,2.531-6.8,1.17-10.961-2.046-6.248-1.144-12.9-.492-19.376.157-1.561,1.8-2.515,3.318-2.531,1.662-.017,1.138,1.723,1.473,2.719,6.017,17.912,12.424,35.709,17.793,53.814,1.945,6.559,5.586,11.365,9.907,16.066,2.353,2.56,2.568,4.619-.689,6.525a29.092,29.092,0,0,0-2.694,2.211c-2.749,2.1-3.794,6.136-7.5,7.04C1610.476,246.419,1602.082,248.239,1594.452,249.979Z" fill="#f5f2f2"/>
    <path id="Maryland" d="M1523.76,435.888c-5.5-2.585-10.972-5.364-17.3-4.929-2.788.191-3.057-.68-2.115-3.1,1.092-2.8,3.582-4.939,2.954-8.619-1.117-6.547-6.754-6.575-11.1-8.157-2.638-.961-5.385-.955-5.758-4.591-.07-.68-.944-1.775-1.524-1.828-6.912-.628-9.013-7.948-15.149-10.478,3.883-1.892,7.733-2.174,11.393-2.981,13.639-3.01,27.349-5.706,40.956-8.849,2.639-.609,3.491-.325,4.16,2.22,3.256,12.392,6.7,24.733,9.984,37.117.927,3.5,2.158,5.067,6.257,3.432,3.385-1.35,7.291-1.393,10.967-2.015.295,3.854-1.63,7.328-1.96,11.029-.492,5.522-5.308,4.962-8.561,6.51-1.421.677-1.737-.646-1.959-1.971-1.133-6.752-3.906-9.778-10.578-10.77-2.433-.362-3.037-1.278-3.892-3.406-2.4-5.978-5.459-11.613-4.748-18.475a108.239,108.239,0,0,1,1.777-10.748c.486-2.357,1.184-5.047-1.21-6.308-2.69-1.417-4.16,1.438-5.591,3.067-7.877,8.96-8.157,24.175-.862,35.559,1.6,2.5,3.021,5.124,4.525,7.691A5.564,5.564,0,0,0,1523.76,435.888Z" fill="#f5f2f2"/>
    <path id="Massachusetts" d="M1572.828,280.711c.848-6.577.454-12.712.411-18.835-.018-2.489.459-3.594,3.387-4.187,14.022-2.839,27.923-6.275,41.936-9.165,4.41-.909,6.7-3.815,9-7.039,1.791-2.511,2.358-3.343,5.4-.133,5.019,5.3-1.022,8.087-1.508,11.893-.458,3.589-.354,6.476,3.687,6.614,4.268.147,7.625.253,7.829,6,.093,2.625,10.346,7.981,14.92,8.3l-7.275,4.287c-1.689-1.085-.114-4.667-3.1-4.607-2.5.05-3.44,2.326-4.5,4.134-1.9,3.239-3.714,5-7.237,1.5-1.442-1.429-3.653-2.155-5.015-3.919-5.458-7.073-5.4-6.759-13.8-4.719-13.258,3.22-26.626,5.985-39.948,8.942Z" fill="#f5f2f2"/>
    <path id="New_Jersey" data-name="New Jersey" d="M1561.014,397.557c.77-5.5-1.351-6.682-6.728-5.964-5.627.751-10.2-3.185-13.149-7.513-2.42-3.546-.33-7.5,3.08-9.858,5.814-4.025,7.087-11.376,12.152-15.949,1.329-1.2.005-2.649-1.352-3.614-2.424-1.724-4.709-3.644-7.139-5.359-4.52-3.19-6.039-6.935-6.531-12.932-.537-6.537,3.788-10.9,3.93-16.687.045-1.845,1.909-2.269,3.89-1.584,4.847,1.676,9.763,3.154,14.662,4.677,4.6,1.431,6.2,6.141,2.778,9.7-2.045,2.128-2.57,4.467-3.063,7.005-.984,5.067.017,6.463,5.079,6.3,2.884-.091,3.774.559,4.228,3.672,1.765,12.091.294,23.366-6.491,33.77-2.2,3.382-2.474,7.485-3.428,11.316C1562.649,395.676,1562.559,396.87,1561.014,397.557Z" fill="#f5f2f2"/>
    <path id="Connecticut" d="M1579.582,316.16c1.964-4.8-1.578-8.3-1.973-12.3-.592-6-2.063-11.926-3.371-17.838-.351-1.587-.1-1.946,1.43-2.212,12.14-2.1,24.159-4.775,36.087-7.852,1.9-.491,2.913-.432,3.439,1.906,1.079,4.794,2.619,9.482,3.879,14.238.786,2.965.1,4.92-3.347,5.822-5.262,1.378-10.37,3.337-15.579,4.933C1592.111,305.323,1585.582,310.083,1579.582,316.16Z" fill="#f5f2f2"/>
    <path id="Delaware" d="M1536.853,374.849c-3.707,7.222.529,12.327,4.195,17.345a50.914,50.914,0,0,1,4.638,8.679c1.807,3.832,3.989,7.272,8.18,8.83a3.513,3.513,0,0,1,1.882,1.468c2.97,4.631,1.692,7.857-3.58,8.989-7.544,1.618-7.592,1.631-9.662-5.735-3.058-10.878-5.907-21.817-9.129-32.646C1532.3,378.17,1533.623,376.387,1536.853,374.849Z" fill="#f5f2f2"/>
    <path id="New_York-2" data-name="New York" d="M1572.253,334.762c4.075-3.887,6.453-9.17,12.922-10.634,5.28-1.195,9.8-5.171,15.359-6.4,1.595-.353,3.149-.739,3.773.874.725,1.872-1.413,1.731-2.351,2.082-7.165,2.681-13.216,7.392-19.98,10.782C1578.948,332.982,1576.03,334.906,1572.253,334.762Z" fill="#f5f2f2"/>
    <path id="Rhode_Island" data-name="Rhode Island" d="M1623.143,294.1c-.495-5.722-2.795-10.7-4-15.957-.32-1.4-1.449-3.4.251-3.926s3.777-2.4,5.505-.836c1.331,1.2,3.08,4.148,2.606,4.772-2.208,2.908-.582,5.218.3,7.736C1629.3,290.158,1627.384,292.605,1623.143,294.1Z" fill="#f5f2f2"/>
    <path id="Washington_DC" data-name="Washington DC" d="M1547.263,467.236c-1.345-9.181,2.2-23.225,6.213-24.225C1551.289,451.2,1548.8,459.076,1547.263,467.236Z" fill="#f5f2f2"/>
    <g id="Hawaii" transform="translate(-106 33)">
      <path id="Path_109" data-name="Path 109" d="M609.623,834.071c1.886-.625,3.978.141,5.262-1.6,3.529-4.784,6.095-3.2,8.451,1.147,1.382,2.552,4.15,3.677,6.231,5.51,1.286,1.132,2.748,2.738,2.005,4.7-.579,1.536-2.391,1.761-3.832,1.852C620.3,846.159,613.236,841.7,609.623,834.071Z" fill="#f5f2f2"/>
      <path id="Path_108" data-name="Path 108" d="M705.941,872.26c-.078,1.548-1.12,2.059-2.224,2.481-2.146.819-4.367,1.473-6.44,2.446-3.716,1.747-6.065.537-7.025-3.221-.654-2.56-2.414-3.8-4.493-4.887a26.273,26.273,0,0,1-2.614-1.374c-1.988-1.35-5.23-3.016-3.622-5.417,1.691-2.525,4.441-.547,6.227,1.394,1.888,2.053,4.228,2.444,6.823,2.01,3.046-.51,11.325,2.9,12.843,5.33A7.686,7.686,0,0,1,705.941,872.26Z" fill="#f5f2f2"/>
      <path id="Path_106" data-name="Path 106" d="M716.819,946.506c4.718-7.977-1.709-14.641-3.911-22-.993-3.315-1.538-5.919,1.913-8.189,1.584-1.041,2.564-3.008,3.8-4.567,2.51-3.16,3.544-6.356.318-9.729-1.1-1.151-1.909-2.69-.665-3.988,1.287-1.344,2.518.263,3.372.977,3.547,2.97,7.955,3.97,12.127,5.343a30.438,30.438,0,0,1,16.978,13.025,55.543,55.543,0,0,0,7.988,9.407c2.773,2.816,3.427,5.2-.492,8.061-4.064,2.962-7.988,5.125-13.186,5.881-6.326.92-11.441,4.769-15.11,10.264-1.119,1.677-1.2,5.662-4.183,4.1C722.338,953.3,716.919,952.969,716.819,946.506Z" fill="#f5f2f2"/>
      <path id="Path_111" data-name="Path 111" d="M551.754,802.282c5.943-.026,8.241,2.868,6.512,7.324-1,2.583-.839,7.094-4.446,6.74a20.293,20.293,0,0,1-12.3-5.6,1.937,1.937,0,0,1,.369-3.053C545.167,805.266,548.457,802.791,551.754,802.282Z" transform="translate(-2 -2)" fill="#f5f2f2"/>
      <path id="Path_7" data-name="Path 7" d="M635.352,843.106c.052,3.429-4.708,7.641-8.465,6.385-6.5-2.172-14.35-2.049-18.319-9.4-1.423-2.635-3.462-4.99-1.773-8.236.57-1.095,12.393-6.676,13.59-6.407C622.989,826.034,635.313,840.573,635.352,843.106Zm-25.729-9.035c3.613,7.63,10.677,12.088,18.117,11.613,1.441-.091,3.253-.316,3.832-1.852.743-1.967-.719-3.573-2.005-4.7-2.081-1.833-4.849-2.958-6.231-5.51-2.356-4.352-4.922-5.931-8.451-1.147C613.6,834.212,611.509,833.446,609.623,834.071Z" fill="#f5f2f2"/>
      <path id="Path_4" data-name="Path 4" d="M727.493,959.01c-10.1-1.041-15.281-7.64-13.472-15.743a12.034,12.034,0,0,0-.943-8.573c-1.332-2.644-2.067-5.585-3.343-8.262-2.442-5.124-2.072-9.141,2.739-13.072,3.276-2.677,6.95-6.188,2.264-11.394-1.713-1.9-.638-5.17,1.364-7.311,2.18-2.333,4.531-.919,6.269.388,3.651,2.746,7.791,4.191,12.009,5.618,8.242,2.789,15.119,7.355,19.659,15.052,2.119,3.593,5.062,6.558,7.946,9.564,4.212,4.392,4.154,7.26-.378,11.269-4.57,4.043-9.292,7.2-16.006,7.77-5.279.449-9.95,4.118-12.744,9.254C731.342,956.355,729.745,959.126,727.493,959.01Zm-10.674-12.5c.1,6.463,5.519,6.8,8.951,8.59,2.987,1.56,3.064-2.425,4.183-4.1,3.669-5.495,8.784-9.344,15.11-10.264,5.2-.756,9.122-2.919,13.186-5.881,3.919-2.856,3.265-5.245.492-8.061a55.543,55.543,0,0,1-7.988-9.407,30.438,30.438,0,0,0-16.978-13.025c-4.172-1.373-8.58-2.373-12.127-5.343-.854-.714-2.085-2.321-3.372-.977-1.244,1.3-.436,2.837.665,3.988,3.226,3.373,2.192,6.569-.318,9.729-1.238,1.559-2.218,3.526-3.8,4.567-3.451,2.27-2.906,4.874-1.913,8.189C715.11,931.865,721.537,938.529,716.819,946.506Z" fill="#f5f2f2"/>
      <path id="Path_6" data-name="Path 6" d="M682.6,857.205c4.008,4.88,10.589,3.7,16.458,5.243,3.236.848,6.573,3.59,9.043,6.645,2.77,3.428,2.639,5.543-1.2,7.995-4.226,2.7-9.062,3.815-13.9,4.784-2.956.592-4.406-1.658-4.936-3.855a8.765,8.765,0,0,0-5.86-6.629c-2.093-.791-3.473-2.464-4.988-3.964-1.769-1.75-2.7-3.878-1.7-6.273C676.6,858.6,679.035,857.912,682.6,857.205Zm23.337,15.055a7.686,7.686,0,0,0-.525-1.238c-1.518-2.429-9.8-5.84-12.843-5.33-2.595.434-4.935.043-6.823-2.01-1.786-1.941-4.536-3.919-6.227-1.394-1.608,2.4,1.634,4.067,3.622,5.417a26.273,26.273,0,0,0,2.614,1.374c2.079,1.09,3.839,2.327,4.493,4.887.96,3.758,3.309,4.968,7.025,3.221,2.073-.973,4.294-1.627,6.44-2.446C704.821,874.319,705.863,873.808,705.941,872.26Z" fill="#f5f2f2"/>
    </g>
    <g id="Alaska" transform="translate(-108 31)">
      <path id="Path_112" data-name="Path 112" d="M252.29,834.676l4.606,2.8c-2.619,1.486-4.383,1.66-4.945-1.7Z" fill="#f5f2f2"/>
      <path id="Path_110" data-name="Path 110" d="M257.8,997.682c-.779-5.147-.779-5.147,4.264-3.986Z" fill="#f5f2f2"/>
      <path id="Path_5" data-name="Path 5" d="M387.573,915.581c1.947.578,3.83.8,5.357,1.664,2.507,1.41,3.291,4.177.453,5.274-3.888,1.5-1.91,3.711-1.3,5.442,1.614,4.62.948,8.519-3.239,10.384a12.249,12.249,0,0,0-6.642,6.27c-2.469,4.887-5.756,4.775-9.268.495-5.774-7.037-5.367-9.492,1.345-15.127,1.994-1.674,3.044-3.948,6.345-3.606,1.18.123,1.183-2.265,1.294-3.81A7.475,7.475,0,0,1,387.573,915.581Zm-9.766,30.378c.8-7.406,6.587-9.278,10.461-12.686,2.765-2.433-.481-2.612-.4-3.89.131-2.031-2.61-1.833-2.775-1.424-1.445,3.58-5.288,3.383-7.819,4.538-6.188,2.826-4.474,5.9-1.635,9.7C376.206,942.957,376.6,943.844,377.807,945.959Z" fill="#f5f2f2"/>
      <path id="Path_87" data-name="Path 87" d="M311.582,912.279c-2.592-4.948,1.045-10.755-2.324-15.712-1.833-2.7-3.121-4.776-6.989-3-5.2,2.388-9.785,3.9-14.136-2.98-2.767-4.377-5.393-6.913-1.238-11.543,1.961-2.185,2.2-4.243-2.016-4.822-4.487-.617-6.988-7.314-4.289-11.025,4.08-5.608,8.352-11.005,10.637-17.746.779-2.3,2.506-4.449,5.349-.835,2.662,3.386,5.188,2.849,8.76-1.822,1.958-2.561,3.286-3.613,6.588-1.995,3.892,1.906,7.949-3.671,7.038-9.446a21.688,21.688,0,0,0-.963-4.336c-1.047-2.749-1.281-5.065,1.094-7.487,1.45-1.478,1.2-3.8-.327-5.5-1.489-1.654-3.281-1.165-4.838-.139-5.476,3.608-11.183,5.263-17.891,3.922-3.061-.612-6.382,1.437-9.725.024-5.57-2.354-6.686-5.34-3.324-9.942.676-.926.536-1.532-.1-2.088a14.2,14.2,0,0,0-2.112-1.172c-2.408-1.45-6.867-2.072-6.02-5.3.755-2.884,4.769-4.424,8.157-4.545,2.863-.1,4.381-.445,5.809-3.637.953-2.129,5.235-2.768,8.1-4.107-.631,9.747,2.79,12.408,12.292,9.754a17.4,17.4,0,0,0,2.4-.59c2.406-1.07,6.136-1.7,6.838-3.487,1.133-2.884-3.376-3.086-4.761-5.191-1.468-2.231-4.481-3.583-3.216-7.181.654-1.86-.706-2.643-2.522-2.692-2.109-.057-4.186-.806-4.853-2.81-2.338-7.024-7.719-11.457-13.164-15.759-2.853-2.255-2.261-4.624-1.472-7.373.867-3.023,3.315-2.4,5.274-2.168,6.837.807,11.026-2.482,13.747-8.333.908-1.953,1.919-3.862,2.746-5.849,1.536-3.694,3.161-7.258,7.911-7.506,1.914-.1,2.827-1.641,4.054-2.679,2.964-2.507,4.806-6.3,10.085-5.392,3.094.534,5.344-2.835,7.4-5.267.726-.859,1.641-1.873,2.9-1.66,2,.341.587,1.764.721,2.729a3.627,3.627,0,0,0,2.812,3.1c3.245.872,3.3-2.533,5.141-4.262,1.313,3.505,3.888,3.869,6.757,2.982a7.318,7.318,0,0,1,5.82.343c6.648,3.663,13.633,3.842,21.015,3.213,5.359-.457,10.323,3.187,16.032,2.512,3.752-.444,7.587-.333,11.152-1.732,6.19-2.429,11.991.315,17.93,1.157,1.7.241,1.551,1.9,1.917,3.143q17.076,57.866,34.181,115.72c2.233,7.549,4.677,15.04,6.7,22.643.84,3.155,1.991,5.743,5.412,6.2,3.539.47,6.949.061,8.9-3.684a3.176,3.176,0,0,1,1.083-.976c4.962,7.366,14.795,8.033,21.035,15.641a53.478,53.478,0,0,0-14.369-3.65,3.838,3.838,0,0,1-3.338-3.2c-1.1-4.042-3.775-4.559-6.8-2.492-4.036,2.758-8.009,2.794-12.623,1.721-4.894-1.138-9.906-.754-14.357,2.291-2.343,1.6-4.418,1.007-7.241.09-9.346-3.036-18.605-6.679-28.545-7.544-.643-.056-1.429.352-1.931.1-1.395-.688-2.688-2.6-4.278-.847-1.324,1.464-.621,3.507-.29,5.267a26.2,26.2,0,0,0,1.328,4.241c1.887,5.056,1.284,6.348-3.79,8.112a12.092,12.092,0,0,0-6.2,5.369,30.6,30.6,0,0,1-12.411,11.3l2.721-4.765c1.354-2.37,2.447-4.662-2.052-3.731-2.572.532-1.86-1.347-1.718-2.39.868-6.382,1.479-12.8,8.452-16.222,1.88-.921,5.758-2.214,3.27-5.828-2.1-3.048-5.114-2.484-7.995-.93-7.682,4.142-12,10.941-13.678,19.135a18.371,18.371,0,0,1-6.894,11.554c-.262.2-.465.478-.711.7-2.483,2.263-5.2,4.887-4.647,8.281.611,3.737,5.069,1.9,7.406,3.473-4.388,7.653-9.81,14.3-17.264,19.19-2.783,1.826-5.169,4.143-5.728,7.787-.472,3.077-2.943,5.276-5.227,6.338-5.672,2.637-9.052,7.39-12.99,11.757-2.852,3.162-5.831,6.324-10.839,5.913-2.682-.221-4.5,1.755-6.253,3.531-2.537,2.572-5.254,4.2-9.141,2.879-2.936-1-4.744,1.391-5.955,3.334-2.182,3.5-5.267,4.13-9.142,3.767,3.812-2.109,6.409-5.22,8.989-8.627,2.115-2.794,5.26-5.76,9.962-2.1,2.523,1.964,5.11-1.305,6.195-3.46,3.089-6.132,7.266-10.546,14.312-11.655a1.137,1.137,0,0,0,.775-.523c3.337-8.05,12.041-13.62,11.013-23.67-.345-3.369.3-6.2,3.222-8.323.974-.709,2.2-1.595,1.353-3.3-.8-1.609-2.058-1.887-3.68-1.881a7.526,7.526,0,0,0-3.751,1.165c-2.673,1.508-4.956,2.861-6.98-1.238-1.352-2.735-3.174-.751-3.879.931-.593,1.417-.413,3.158-.576,4.765-2.863-1.487-2.33-6.807-5.188-6.671-4.972.238-10.67-3.062-15.007,2.016Z" fill="#f5f2f2"/>
      <path id="Path_107" data-name="Path 107" d="M377.807,945.959c-1.208-2.115-1.6-3-2.166-3.759-2.839-3.8-4.553-6.877,1.635-9.7,2.531-1.155,6.374-.958,7.819-4.538.165-.409,2.906-.607,2.775,1.424-.083,1.278,3.163,1.457.4,3.89C384.394,936.681,378.609,938.553,377.807,945.959Z" fill="#f5f2f2"/>
      <path id="Path_113" data-name="Path 113" d="M249.951,833.781l-1.692-1.477.906-.754,1.79,1.7Z" fill="#f5f2f2"/>
      <path id="Path_115" data-name="Path 115" d="M250.955,833.248l1.094,1.18-1.122.377-.976-1.024Z" fill="#f5f2f2"/>
      <path id="Path_116" data-name="Path 116" d="M252.049,834.428l.242.249c-.114.364-.227.73-.34,1.095l-1.024-.967Z" fill="#f5f2f2"/>
      <path id="Path_117" data-name="Path 117" d="M265.722,890.432c3.4-.766,5.378-1.306,7.391-1.631,1.26-.2,2.61-.3,3.256,1.347.375.958.76,1.761-.16,2.628-1.086,1.023-2.068,2.12-3.78,1.171C270.622,892.945,268.77,892.023,265.722,890.432Z" fill="#f5f2f2"/>
      <path id="Path_114" data-name="Path 114" d="M248.259,832.3c-.484-.338-1.373-.784-.928-1.3.563-.647,1.427-.374,1.834.542Z" fill="#f5f2f2"/>
      <path id="Path_8" data-name="Path 8" d="M249.592,1004.086c-5.615-4.149-7.726,3.088-12.031,3.747-1.4.214-2.741,1.547-3.977.076-1.32-1.57.823-2.144,1.213-3.235,1.181-3.3,4.029-5.013,6.437-7.172,2.627-2.356,5.176-4.571,8.272-.622.864,1.1,2.047.894,3.193.473,1.49-.549,1.212-1.613.97-2.842-.571-2.893,1.212-4.642,3.644-4.947,2.986-.376,6.82-1.248,8.207,2.651.836,2.351-1.035,4.007-2.965,5.864C258.8,1001.688,253.755,1001.505,249.592,1004.086Zm8.213-6.4,4.264-3.986C257.026,992.535,257.026,992.535,257.8,997.682Z" fill="#f5f2f2"/>
    </g>
  </g>
</svg>
